<?xml version="1.0" standalone="no"?>
<!DOCTYPE svg PUBLIC "-//W3C//DTD SVG 20010904//EN"
 "http://www.w3.org/TR/2001/REC-SVG-20010904/DTD/svg10.dtd">
<svg version="1.0" xmlns="http://www.w3.org/2000/svg"
 width="180.000000pt" height="180.000000pt" viewBox="0 0 180.000000 180.000000"
 preserveAspectRatio="xMidYMid meet">

<g transform="translate(0.000000,180.000000) scale(0.100000,-0.100000)"
fill="#000000" stroke="none">
<path d="M395 1790 c-133 -11 -270 -51 -311 -91 -34 -33 -34 -33 -34 -128 0
-87 23 -380 34 -441 3 -14 8 -74 11 -135 15 -273 21 -339 41 -389 6 -16 5 -17
-14 -7 -18 10 -21 9 -16 -4 4 -8 10 -15 14 -15 4 0 30 -20 57 -44 48 -44 51
-45 112 -42 35 1 74 -4 87 -10 25 -13 48 -10 100 15 l33 16 -57 1 c-102 0
-292 75 -292 114 0 15 72 -2 120 -26 25 -13 51 -24 58 -24 7 0 20 -6 28 -14
20 -20 98 -31 121 -17 15 10 14 10 -10 7 -19 -3 -27 -1 -24 7 2 7 0 21 -6 32
-10 19 -9 19 10 2 24 -21 33 -14 33 25 0 54 -16 69 -68 66 -41 -3 -47 -1 -44
16 3 17 -1 18 -40 12 -119 -19 -126 -19 -136 0 -12 24 -21 158 -49 791 l-6
142 24 5 c56 12 211 26 299 26 94 1 95 1 73 19 -19 16 -20 21 -9 36 18 25 58
16 63 -14 2 -14 -2 -28 -8 -31 -6 -4 10 -11 35 -14 25 -4 51 -4 58 0 7 4 8 3
4 -4 -5 -9 10 -12 52 -12 l60 0 7 -127 c4 -69 8 -204 9 -300 0 -95 4 -173 9
-173 4 0 7 8 7 18 1 16 1 16 11 0 7 -12 7 -24 0 -37 -6 -10 -8 -21 -4 -24 3
-4 0 -13 -7 -22 -11 -13 -10 -14 5 -8 15 5 17 3 10 -13 -11 -24 -19 -182 -9
-172 14 15 34 -14 28 -41 -5 -19 -4 -23 5 -15 7 7 14 64 18 148 6 130 7 138
31 157 14 10 31 19 38 19 8 0 14 4 14 8 0 5 27 2 59 -6 33 -8 67 -12 75 -9 26
10 18 34 -15 47 -38 16 -132 -3 -166 -33 -13 -11 -26 -18 -29 -15 -3 4 -8 49
-11 102 -3 53 -10 96 -14 96 -5 0 -9 5 -9 11 0 5 5 7 11 3 12 -7 8 47 -16 216
-8 52 -17 125 -20 162 -7 76 -29 112 -81 134 -36 15 -197 17 -359 4z m110 -30
c3 -6 -1 -7 -9 -4 -18 7 -21 14 -7 14 6 0 13 -4 16 -10z"/>
<path d="M1212 1630 c-37 -9 -59 -30 -136 -133 -30 -40 -66 -85 -81 -100 -23
-24 -52 -87 -40 -87 2 0 29 32 60 70 31 39 64 70 73 70 9 0 28 16 42 35 14 19
44 45 67 57 54 29 66 52 23 46 -16 -3 -30 -1 -30 3 0 15 41 31 64 25 30 -7 72
4 54 15 -15 10 -51 10 -96 -1z"/>
<path d="M1471 1591 c-9 -6 -10 -11 -2 -15 6 -4 16 -4 23 0 6 4 25 11 42 15
30 7 30 7 -9 8 -22 0 -46 -3 -54 -8z"/>
<path d="M695 1536 c-17 -25 -20 -26 -25 -10 -5 13 -9 5 -14 -25 -4 -27 -3
-48 4 -55 7 -7 10 -3 10 12 0 26 12 28 30 7 7 -8 24 -15 39 -14 24 0 23 1 -11
16 -42 17 -46 28 -22 54 9 10 14 24 12 31 -3 8 -12 2 -23 -16z"/>
<path d="M1562 1521 c13 -15 29 -26 36 -23 8 3 1 13 -20 28 -41 31 -45 30 -16
-5z"/>
<path d="M1600 1470 c0 -3 7 -27 16 -55 23 -74 27 -238 7 -302 -8 -29 -19 -50
-23 -48 -4 3 -17 -15 -29 -40 -19 -39 -20 -53 -12 -103 12 -77 38 -141 72
-177 15 -16 37 -52 48 -78 27 -63 81 -335 94 -477 2 -19 5 8 5 61 1 53 -2 109
-7 125 -5 16 -24 98 -42 183 -26 122 -40 164 -66 205 -70 110 -88 172 -58 202
8 9 15 27 15 42 0 41 50 151 72 157 18 6 18 7 -2 35 -11 15 -20 39 -20 52 -1
47 -30 161 -50 192 -11 17 -20 29 -20 26z"/>
<path d="M1065 1410 c3 -5 8 -10 11 -10 2 0 4 5 4 10 0 6 -5 10 -11 10 -5 0
-7 -4 -4 -10z"/>
<path d="M1091 1317 c-17 -44 -13 -90 13 -141 l24 -47 -5 88 c-3 48 -9 97 -13
108 -7 18 -9 18 -19 -8z"/>
<path d="M1047 1283 c-11 -10 -8 -83 3 -83 6 0 10 20 10 45 0 46 -2 50 -13 38z"/>
<path d="M1206 1165 c-7 -20 4 -75 15 -75 5 0 9 20 9 45 0 44 -12 60 -24 30z"/>
<path d="M968 983 c-19 -5 -25 -23 -8 -23 15 0 103 -90 129 -132 12 -21 36
-47 53 -60 28 -19 35 -20 75 -10 85 23 102 11 105 -75 1 -37 2 -40 5 -15 3 21
19 48 44 74 37 39 39 44 28 70 -14 35 -52 46 -93 28 -17 -7 -51 -14 -75 -14
-42 -1 -47 2 -87 54 -76 99 -90 110 -126 109 -18 -1 -41 -3 -50 -6z"/>
<path d="M1130 957 c0 -22 32 -65 57 -75 l28 -13 -23 19 c-12 10 -32 31 -42
47 -11 17 -20 26 -20 22z"/>
<path d="M1040 731 c-30 -10 -132 -60 -180 -89 -19 -12 -45 -22 -58 -22 -38 0
-64 -18 -53 -38 12 -23 53 -20 115 7 48 21 76 22 76 2 0 -5 -22 -17 -50 -26
-46 -15 -68 -30 -58 -40 4 -4 42 6 95 26 24 9 53 3 53 -12 0 -5 -12 -12 -27
-15 -16 -4 -32 -10 -38 -14 -5 -4 -36 -17 -67 -29 -59 -24 -76 -42 -54 -60 10
-8 24 -3 54 19 23 17 46 30 51 30 6 0 14 6 18 13 4 6 13 12 18 13 6 0 23 4 38
8 30 9 77 -6 77 -24 0 -5 -11 -10 -25 -10 -13 0 -39 -8 -57 -19 -83 -46 -108
-64 -108 -73 0 -5 -4 -6 -10 -3 -5 3 -10 -2 -10 -12 0 -15 -2 -16 -10 -3 -8
13 -11 13 -22 1 -7 -8 -8 -11 -2 -8 7 4 14 0 18 -8 5 -13 12 -12 51 7 25 12
45 29 45 37 0 14 2 14 10 1 7 -11 11 -8 20 15 9 23 13 26 20 15 6 -9 21 -14
40 -12 42 5 31 -20 -20 -43 -60 -27 -81 -51 -70 -79 7 -21 6 -23 -11 -19 -11
3 -19 0 -19 -6 0 -7 4 -10 9 -7 4 3 6 -6 3 -19 -2 -14 -1 -41 2 -60 6 -28 11
-35 30 -35 44 0 166 32 166 44 0 6 5 4 11 -4 8 -12 10 -12 7 5 -2 12 -18 25
-43 34 -47 18 -63 31 -57 49 2 6 -3 12 -12 12 -29 0 -29 23 0 47 19 15 42 23
66 23 32 0 145 24 154 33 7 7 -30 67 -41 67 -19 0 -36 25 -29 44 8 20 24 21
24 2 0 -8 9 -17 19 -21 11 -3 25 -21 31 -40 6 -19 15 -35 19 -35 12 0 61 139
66 186 4 37 4 38 -7 12 -7 -16 -18 -28 -26 -28 -8 0 -51 38 -96 85 -82 86 -94
92 -146 76z m100 -49 c0 -5 -27 -29 -59 -55 -51 -39 -61 -44 -72 -31 -14 17
-12 18 50 63 42 30 81 41 81 23z m45 -41 c3 -5 -17 -32 -45 -60 -27 -27 -50
-54 -50 -60 0 -5 8 -18 18 -27 16 -17 16 -18 -1 -11 -10 4 -23 7 -27 7 -5 0
-14 9 -20 20 -13 24 11 65 64 112 32 29 51 35 61 19z m-90 -171 c3 -5 1 -10
-4 -10 -6 0 -11 5 -11 10 0 6 2 10 4 10 3 0 8 -4 11 -10z"/>
<path d="M435 720 c3 -5 10 -10 16 -10 5 0 9 5 9 10 0 6 -7 10 -16 10 -8 0
-12 -4 -9 -10z"/>
<path d="M761 720 c-44 -10 -60 -28 -68 -73 -5 -33 -4 -35 16 -30 17 4 19 9
10 24 -14 27 -6 35 51 54 81 27 75 45 -9 25z"/>
<path d="M546 515 c4 -8 0 -23 -7 -32 -12 -15 -12 -16 4 -10 10 4 20 7 21 7 2
0 1 11 -2 25 -2 14 -8 25 -13 25 -5 0 -6 -7 -3 -15z"/>
<path d="M760 512 c0 -7 -4 -11 -9 -7 -5 3 -12 1 -15 -4 -4 -5 -2 -12 3 -15 5
-4 12 -2 16 4 4 6 10 8 14 5 5 -2 18 4 30 14 l21 18 -30 -1 c-17 -1 -30 -6
-30 -14z"/>
<path d="M549 437 c-20 -15 -21 -50 -2 -42 8 3 18 5 21 5 4 0 8 11 8 25 2 28
-3 30 -27 12z"/>
<path d="M459 383 c-13 -16 -12 -17 4 -4 16 13 21 21 13 21 -2 0 -10 -8 -17
-17z"/>
<path d="M162 320 c0 -19 2 -27 5 -17 2 9 2 25 0 35 -3 9 -5 1 -5 -18z"/>
<path d="M868 293 c6 -2 18 -2 25 0 6 3 1 5 -13 5 -14 0 -19 -2 -12 -5z"/>
</g>
</svg>
